<?xml version="1.0" encoding="utf-8" standalone="no"?>
<!DOCTYPE svg PUBLIC "-//W3C//DTD SVG 1.1//EN"
  "http://www.w3.org/Graphics/SVG/1.1/DTD/svg11.dtd">
<!-- Created with matplotlib (https://matplotlib.org/) -->
<svg height="621.36pt" version="1.1" viewBox="0 0 1152.72 621.36" width="1152.72pt" xmlns="http://www.w3.org/2000/svg" xmlns:xlink="http://www.w3.org/1999/xlink">
 <defs>
  <style type="text/css">
*{stroke-linecap:butt;stroke-linejoin:round;}
  </style>
 </defs>
 <g id="figure_1">
  <g id="patch_1">
   <path d="M 0 621.36 
L 1152.72 621.36 
L 1152.72 0 
L 0 0 
z
" style="fill:#ffffff;"/>
  </g>
  <g id="axes_1">
   <g id="PathCollection_1">
    <defs>
     <path d="M 0 3 
C 0.795609 3 1.55874 2.683901 2.12132 2.12132 
C 2.683901 1.55874 3 0.795609 3 0 
C 3 -0.795609 2.683901 -1.55874 2.12132 -2.12132 
C 1.55874 -2.683901 0.795609 -3 0 -3 
C -0.795609 -3 -1.55874 -2.683901 -2.12132 -2.12132 
C -2.683901 -1.55874 -3 -0.795609 -3 0 
C -3 0.795609 -2.683901 1.55874 -2.12132 2.12132 
C -1.55874 2.683901 -0.795609 3 0 3 
z
" id="m1b11a0a7e8" style="stroke:#008000;"/>
    </defs>
    <g clip-path="url(#pf9352b4331)">
     <use style="fill:#008000;stroke:#008000;" x="576.36" xlink:href="#m1b11a0a7e8" y="310.68"/>
    </g>
   </g>
   <g id="PathCollection_2">
    <defs>
     <path d="M 0 3 
C 0.795609 3 1.55874 2.683901 2.12132 2.12132 
C 2.683901 1.55874 3 0.795609 3 0 
C 3 -0.795609 2.683901 -1.55874 2.12132 -2.12132 
C 1.55874 -2.683901 0.795609 -3 0 -3 
C -0.795609 -3 -1.55874 -2.683901 -2.12132 -2.12132 
C -2.683901 -1.55874 -3 -0.795609 -3 0 
C -3 0.795609 -2.683901 1.55874 -2.12132 2.12132 
C -1.55874 2.683901 -0.795609 3 0 3 
z
" id="m3c661581c2" style="stroke:#0000ff;"/>
    </defs>
    <g clip-path="url(#pf9352b4331)">
     <use style="fill:#0000ff;stroke:#0000ff;" x="130.127384" xlink:href="#m3c661581c2" y="170.147832"/>
    </g>
   </g>
   <g id="PathCollection_3">
    <g clip-path="url(#pf9352b4331)">
     <use style="fill:#0000ff;stroke:#0000ff;" x="1001.542647" xlink:href="#m3c661581c2" y="527.337662"/>
    </g>
   </g>
   <g id="PathCollection_4">
    <g clip-path="url(#pf9352b4331)">
     <use style="fill:#0000ff;stroke:#0000ff;" x="1084.069746" xlink:href="#m3c661581c2" y="326.691496"/>
    </g>
   </g>
   <g id="PathCollection_5">
    <g clip-path="url(#pf9352b4331)">
     <use style="fill:#0000ff;stroke:#0000ff;" x="158.28431" xlink:href="#m3c661581c2" y="487.321659"/>
    </g>
   </g>
   <g id="PathCollection_6">
    <g clip-path="url(#pf9352b4331)">
     <use style="fill:#0000ff;stroke:#0000ff;" x="823.600549" xlink:href="#m3c661581c2" y="425.652683"/>
    </g>
   </g>
   <g id="line2d_1">
    <path clip-path="url(#pf9352b4331)" d="M 576.36 310.68 
L 568.058675 311.310858 
L 560.639389 309.20682 
L 553.767683 306.618238 
L 545.447767 306.063083 
L 537.496892 304.630287 
L 530.462508 302.171946 
L 523.534969 299.626972 
L 517.93031 296.266317 
L 514.476943 292.148547 
L 516.490857 287.761894 
L 524.170754 285.949821 
L 531.121437 283.423249 
L 533.64573 279.11399 
L 538.577231 275.459565 
L 541.988525 271.331619 
L 546.626896 262.646373 
L 549.541021 258.409192 
L 548.61509 253.917857 
L 553.675622 250.315053 
L 556.881483 246.139538 
L 556.590169 241.623285 
L 559.931297 237.478697 
L 557.085817 233.227981 
L 560.070335 229.00506 
L 567.172952 226.604401 
L 575.487792 227.18123 
L 578.963871 231.293443 
L 576.948552 235.679908 
L 574.423472 239.989034 
L 569.194593 243.521298 
L 560.862636 244.021237 
L 552.779424 245.21972 
L 545.4158 247.379827 
L 541.18123 251.27995 
L 540.682557 255.79093 
L 546.363718 259.114051 
L 552.831567 261.989132 
L 556.060455 266.159489 
L 564.423375 266.475303 
L 572.646877 265.596866 
L 581.024059 265.422591 
L 587.832376 262.78579 
L 593.707756 259.562288 
L 601.126983 257.458189 
L 607.644781 254.616072 
L 607.564121 250.0973 
L 605.697306 245.691782 
L 603.627372 241.312713 
L 608.04964 237.473594 
L 610.829715 233.210321 
L 607.651645 229.028637 
L 602.677535 225.391031 
L 596.713633 222.215114 
L 596.301064 217.701608 
L 593.125627 213.519343 
L 587.58045 210.130138 
L 588.349233 205.630198 
L 585.052686 201.47525 
L 577.930445 199.091544 
L 571.562872 196.152144 
L 567.682517 192.146379 
L 562.268578 188.696073 
L 563.329824 184.213445 
L 564.764179 179.761097 
L 563.930986 175.264489 
L 570.71271 172.60785 
L 579.027593 173.184503 
L 585.43064 170.26758 
L 593.551612 169.145718 
L 601.318768 170.846294 
L 605.013199 174.902816 
L 612.837592 173.280268 
L 617.219981 169.427885 
L 622.292975 165.830177 
L 625.670899 161.694264 
L 633.487762 160.061206 
L 641.096319 158.163703 
L 656.788898 161.346221 
L 661.218935 165.182736 
L 666.687281 173.726471 
L 668.402143 178.149901 
L 676.767885 177.856598 
L 685.151166 177.882375 
L 692.857636 179.661367 
L 700.808958 181.093442 
L 705.124414 177.219166 
L 707.8603 172.947595 
L 715.646469 171.272472 
L 722.672188 168.806942 
L 726.54691 164.799592 
L 734.785684 165.635415 
L 742.521399 163.893696 
L 750.064381 165.865804 
L 758.407188 166.31007 
L 762.90909 170.1222 
L 765.98071 174.326934 
L 767.919153 178.723455 
L 767.153496 183.22355 
L 762.102705 186.830324 
L 760.487909 191.264683 
L 758.546293 195.660796 
L 756.858296 200.087227 
L 758.538344 204.514536 
L 758.769678 209.031797 
L 758.623045 213.550088 
L 754.641232 217.526818 
L 748.721345 220.726573 
L 742.297322 223.630064 
L 735.517518 226.288127 
L 727.34099 227.285869 
L 726.236019 222.806311 
L 732.704613 219.931717 
L 738.385417 216.608419 
L 745.517314 214.233116 
L 753.831098 213.651883 
L 762.209188 213.812979 
L 770.562623 214.194833 
L 778.848232 214.883111 
L 783.759551 218.545423 
L 791.413719 220.388856 
L 799.732767 219.82993 
L 804.623405 223.500276 
L 809.031139 227.344248 
L 815.026311 230.503012 
L 818.678493 234.570635 
L 818.019341 239.075627 
L 814.062061 243.059466 
L 806.123381 244.511776 
L 798.491961 246.382411 
L 790.871922 244.498343 
L 782.497334 244.290981 
L 776.10651 241.36628 
L 769.213289 238.794373 
L 760.832208 238.68767 
L 752.459344 238.914348 
L 745.524444 241.45349 
L 742.072143 245.57152 
L 735.526051 248.394679 
L 730.275315 244.871848 
L 724.097399 241.817111 
L 719.230984 238.137423 
L 712.781186 235.250583 
L 704.706322 234.035861 
L 699.037713 230.706517 
L 691.936458 228.304687 
L 688.478121 224.18813 
L 680.646389 222.575903 
L 673.437024 220.269553 
L 665.668146 218.571263 
L 659.263679 215.655247 
L 650.898364 215.358432 
L 644.352452 218.181713 
L 639.810731 221.980095 
L 633.401357 224.892978 
L 622.379833 231.70345 
L 614.02682 232.087976 
L 605.955762 230.865924 
L 598.825734 228.488993 
L 594.61633 224.580962 
L 588.084168 221.748444 
L 582.287978 218.48355 
L 574.339762 217.046475 
L 573.473506 212.551683 
L 567.629143 209.311839 
L 563.323451 205.434408 
L 564.27414 200.944576 
L 571.889565 199.055095 
L 572.174672 194.538727 
L 571.543791 190.032559 
L 569.011195 185.724715 
L 567.093187 181.325592 
L 570.806125 177.273983 
L 575.189808 173.422027 
L 573.489378 168.996979 
L 570.357692 164.80514 
L 574.720032 160.94615 
L 576.683125 156.552809 
L 575.865776 152.055356 
L 573.103386 147.788744 
L 567.938804 144.229101 
L 564.400376 140.132368 
L 564.920542 135.622093 
L 564.969171 131.103187 
L 572.81105 129.505357 
L 580.775622 130.915875 
L 587.750632 133.422892 
L 587.461495 137.939185 
L 579.337144 139.053916 
L 570.958391 139.204648 
L 564.087349 141.793742 
L 561.07575 146.011073 
L 556.043339 149.625304 
L 554.506687 154.067723 
L 548.383112 157.154089 
L 551.422872 161.365545 
L 548.003757 165.491612 
L 549.069714 169.973915 
L 551.881705 174.231101 
L 551.899981 178.750072 
L 546.232349 182.079899 
L 545.13176 186.559769 
L 547.33107 190.920476 
L 545.108459 195.277748 
L 540.90596 199.187937 
L 538.567975 203.52763 
L 532.065907 206.380196 
L 524.482337 208.306544 
L 516.107231 208.105357 
L 508.411009 209.897192 
L 501.518193 212.469414 
L 493.467929 211.208139 
L 485.108223 210.868496 
L 478.393625 208.162767 
L 472.110006 205.171333 
L 470.156858 200.776704 
L 475.011589 192.125977 
L 479.036171 188.161776 
L 475.396677 184.09085 
L 474.836886 179.581954 
L 472.23193 175.286666 
L 473.22157 170.799281 
L 470.078826 166.609846 
L 466.11829 162.626947 
L 465.562162 158.11792 
L 467.630145 153.738583 
L 469.322874 149.312677 
L 468.830201 144.801505 
L 473.928005 141.214002 
L 480.625779 138.496184 
L 475.615955 134.872847 
L 467.262074 134.493838 
L 462.5129 138.21777 
L 461.403682 142.697022 
L 457.724153 146.757477 
L 453.648094 150.706366 
L 447.898101 153.994909 
L 442.888138 157.61819 
L 435.091536 159.279153 
L 426.784372 158.671035 
L 420.44036 161.625201 
L 422.730471 165.972304 
L 419.679287 170.181359 
L 412.7122 172.694768 
L 409.243312 176.808746 
L 405.191926 180.765005 
L 401.772304 184.89095 
L 397.771223 188.862057 
L 391.145395 191.630641 
L 386.693295 195.459728 
L 385.2413 199.910414 
L 381.163668 203.858832 
L 375.042394 206.946523 
L 365.760958 214.473043 
L 361.397867 218.331785 
L 359.306548 222.707901 
L 355.531641 226.742837 
L 353.761876 231.159978 
L 350.513952 235.326038 
L 343.230387 237.563623 
L 335.776954 239.632296 
L 327.793525 241.011493 
L 317.532152 233.864148 
L 313.130601 230.018118 
L 304.827115 229.395575 
L 297.53277 227.168217 
L 291.307508 224.141538 
L 282.927024 224.021991 
L 275.022152 222.517051 
L 267.591836 220.424354 
L 260.944022 223.177582 
L 254.552184 220.253524 
L 251.601121 216.023777 
L 247.721692 212.017751 
L 241.170228 209.198215 
L 233.523523 207.345805 
L 229.851755 203.283309 
L 232.308613 198.96274 
L 236.017868 194.910151 
L 236.891531 190.415775 
L 236.786104 185.897151 
L 240.177521 181.764447 
L 246.879419 179.049585 
L 261.407246 174.538118 
L 269.555868 173.47611 
L 277.263732 171.698875 
L 285.344923 172.901312 
L 292.652655 175.115884 
L 299.343239 177.838841 
L 305.616411 180.836641 
L 313.966921 180.43663 
L 317.804954 184.454225 
L 318.968249 188.92949 
L 324.65736 192.248657 
L 327.157418 196.56202 
L 325.243635 200.961678 
L 326.122474 205.455761 
L 326.769823 209.96125 
L 331.099644 213.830866 
L 330.038816 218.313523 
L 333.85936 222.335959 
L 331.474711 226.668268 
L 333.966683 230.98299 
L 334.149065 235.500902 
L 332.276174 239.905671 
L 335.667079 244.038496 
L 337.508019 248.447177 
L 342.217704 252.185653 
L 341.858951 256.700495 
L 346.908534 260.30776 
L 354.366921 262.371239 
L 358.491798 258.437106 
L 363.223067 254.706558 
L 365.682567 250.386425 
L 364.331117 245.926548 
L 357.39541 243.388046 
L 351.370722 234.953958 
L 345.610015 231.670869 
L 339.046983 228.859161 
L 332.643174 225.942724 
L 326.833143 222.684987 
L 322.776262 218.730364 
L 318.425007 214.86774 
L 312.044875 211.936264 
L 308.851202 207.758035 
L 311.31868 203.439225 
L 304.47245 200.831103 
L 296.097741 200.625162 
L 293.897115 204.985675 
L 286.88718 207.464225 
L 281.560934 210.953963 
L 275.329234 213.97679 
L 268.645397 216.704559 
L 265.721369 220.939758 
L 263.272085 225.261577 
L 257.150669 228.349186 
L 257.301547 232.867436 
L 254.055827 237.033995 
L 250.192891 241.04465 
L 249.459488 245.546306 
L 257.527523 246.774142 
L 264.361759 249.391389 
L 267.492743 253.583381 
L 273.939588 256.472137 
L 282.054736 255.338096 
L 287.886515 252.09167 
L 294.271542 249.163292 
L 302.654283 249.220699 
L 311.036407 249.141275 
L 319.383391 249.562122 
L 327.606539 250.441521 
L 333.627585 247.297089 
L 340.446897 244.668557 
L 335.287957 241.106537 
L 329.051558 238.086527 
L 321.593074 236.02315 
L 313.586527 234.683458 
L 305.495311 235.866141 
L 300.332946 239.426719 
L 301.568836 243.896326 
L 301.050026 248.406646 
L 305.832173 252.118297 
L 303.036694 256.378643 
L 301.563885 260.827341 
L 304.251556 265.107797 
L 309.356442 268.692373 
L 313.253463 272.693435 
L 313.652314 277.2073 
L 315.356508 281.631927 
L 315.79058 286.144847 
L 319.191005 290.275399 
L 327.434127 291.09867 
L 335.750624 291.668518 
L 342.366671 294.443891 
L 348.506485 297.520868 
L 352.156203 301.589133 
L 358.37397 304.620285 
L 359.517662 309.097018 
L 361.216401 313.522254 
L 369.1743 314.943674 
L 377.44635 315.677815 
L 385.543885 316.847865 
L 393.910632 316.563015 
L 399.245737 320.048819 
L 405.853071 322.830215 
L 407.677211 327.240925 
L 414.479693 329.882098 
L 419.963243 333.300313 
L 426.917537 335.823995 
L 434.420572 333.808096 
L 441.659769 331.529059 
L 443.546718 327.126034 
L 446.611548 322.919861 
L 446.561026 318.400961 
L 440.280451 315.407669 
L 438.461607 310.996325 
L 435.217428 306.829417 
L 427.317877 305.316381 
L 419.672209 303.462728 
L 412.168024 301.448073 
L 410.953728 296.976746 
L 405.173123 293.703835 
L 399.827444 290.222741 
L 395.830298 286.250483 
L 391.364814 282.425927 
L 384.136663 280.136726 
L 384.329176 275.618936 
L 379.564165 271.900887 
L 377.490789 267.522291 
L 377.711636 263.004877 
L 380.056888 258.666324 
L 382.922102 254.419461 
L 380.247981 250.136541 
L 379.731013 245.626159 
L 379.341936 241.112047 
L 373.33214 237.961368 
L 364.993922 237.492739 
L 358.84403 234.421616 
L 351.478892 232.263009 
L 344.72941 229.582619 
L 341.98091 225.313401 
L 340.511474 220.864378 
L 342.773915 216.513067 
L 351.141314 216.792291 
L 359.394295 217.586344 
L 362.821221 221.710528 
L 370.402643 223.63933 
L 377.258474 226.240114 
L 378.808472 230.681186 
L 375.343573 234.79614 
L 375.648464 239.312133 
L 374.383263 243.779356 
L 376.778892 248.109905 
L 370.790032 251.272146 
L 362.440498 250.866261 
L 354.493262 249.42761 
L 346.150737 248.981809 
L 337.791852 249.32727 
L 330.723727 246.897212 
L 324.716507 243.745106 
L 321.191526 239.645006 
L 314.448127 236.960171 
L 308.411968 233.824169 
L 309.324775 229.332054 
L 304.6942 225.564973 
L 306.592691 221.16339 
L 312.312463 217.85957 
L 318.769405 214.977374 
L 324.902047 211.896244 
L 329.192875 208.014029 
L 331.38589 203.652401 
L 335.961818 199.865967 
L 344.345025 199.833901 
L 352.660278 199.258803 
L 360.962521 199.886143 
L 367.711555 197.205424 
L 372.960278 193.681723 
L 378.060283 190.095128 
L 385.525885 188.039244 
L 388.397206 183.79358 
L 383.828667 180.004555 
L 379.136231 176.259782 
L 372.884481 173.249008 
L 370.57217 168.90532 
L 365.242195 165.417236 
L 356.972981 166.160601 
L 349.348772 164.281441 
L 343.582359 161.001263 
L 343.119826 156.489165 
L 338.775759 152.624191 
L 335.65817 148.429299 
L 332.390819 144.267655 
L 331.964248 139.754527 
L 326.328218 136.409151 
L 323.94014 132.077391 
L 321.716589 127.720258 
L 319.729452 123.330059 
L 312.217742 121.323569 
L 305.805002 124.234299 
L 303.779783 128.619438 
L 304.313777 133.129244 
L 311.835953 135.124308 
L 314.729655 139.365554 
L 316.87315 143.734329 
L 321.999578 147.309961 
L 322.844065 151.805957 
L 330.689937 153.398083 
L 339.066169 153.211021 
L 343.073551 157.180282 
L 342.096641 161.668477 
L 335.307513 164.319615 
L 326.924979 164.385245 
L 319.469909 166.452204 
L 317.207675 170.803547 
L 310.758224 167.916482 
L 303.960477 165.271768 
L 297.711525 162.259307 
L 295.703552 157.871863 
L 296.492494 153.372936 
L 294.539961 148.978228 
L 298.916415 145.123885 
L 304.877756 141.946571 
L 313.26013 141.875235 
L 321.553244 141.213742 
L 329.773039 142.102204 
L 334.11902 138.237855 
L 331.606602 133.92658 
L 330.398019 129.454804 
L 323.515921 126.874255 
L 317.569241 123.688969 
L 309.670183 122.175185 
L 301.648238 120.862531 
L 294.195034 118.793618 
L 285.826975 118.520193 
L 278.579938 120.791979 
L 275.113719 124.90661 
L 267.071364 126.182459 
L 259.174397 127.69941 
L 254.34976 124.003771 
L 247.84429 121.153459 
L 243.181691 117.397873 
L 234.843912 116.92698 
L 226.522954 117.477581 
L 218.92844 115.563803 
L 213.202504 112.263086 
L 213.419963 107.745625 
L 211.245704 103.38127 
L 203.296499 101.945783 
L 197.270982 98.803841 
L 193.747768 94.7033 
L 186.723827 92.236297 
L 181.082189 88.893669 
L 172.813743 89.639513 
L 164.435075 89.487409 
L 156.051765 89.464545 
L 147.691997 89.125345 
L 141.478913 92.159286 
L 136.001619 95.580414 
L 131.659738 99.446102 
L 125.988488 102.774138 
L 118.290469 104.563729 
L 111.05342 106.844747 
L 102.671692 106.935508 
L 97.870887 103.230862 
L 92.111354 99.947174 
L 90.902658 95.475407 
L 83.915547 92.978201 
L 78.122946 89.711458 
L 66.164056 83.377226 
L 64.5831 78.939326 
L 62.509486 74.560762 
L 63.120773 70.05381 
L 60.891642 65.697505 
L 67.121396 62.673513 
L 75.483806 62.353796 
L 83.675982 63.313519 
L 90.092812 66.221628 
L 97.059578 68.735296 
L 103.717645 65.989277 
L 105.776549 61.608697 
L 103.18724 57.310661 
L 96.385705 54.668779 
L 88.133067 53.873692 
L 82.332946 50.610828 
L 75.146905 48.283424 
L 66.784415 47.964317 
L 61.532578 51.486671 
L 57.209272 55.358403 
L 60.498123 59.515123 
L 62.385655 63.918075 
L 66.540337 67.843084 
L 71.322 71.554916 
L 78.857195 73.535655 
L 81.585455 77.808643 
L 88.205935 80.580941 
L 91.362724 84.767307 
L 94.003835 89.056175 
L 93.900482 93.574813 
L 87.929693 96.746968 
L 80.379101 98.710596 
L 72.000016 98.565319 
L 63.961286 99.84779 
L 55.997319 101.259302 
L 52.396364 100.113018 
L 52.396364 94.498967 
L 54.304494 90.098595 
L 52.396364 85.842358 
L 55.782875 81.708486 
L 59.584078 77.68073 
L 56.091821 73.572501 
L 52.396364 70.226435 
L 52.396364 61.342466 
L 52.396364 76.568357 
L 53.292642 81.061439 
L 52.396364 85.403501 
L 55.3008 89.642615 
L 57.192968 94.044989 
L 56.72704 98.556987 
L 52.396364 101.074617 
L 52.396364 99.00148 
L 52.396364 111.467246 
L 59.419114 113.935233 
L 67.73559 113.365298 
L 75.893855 112.325024 
L 83.218105 110.126365 
L 81.822143 105.670473 
L 82.988233 101.19542 
L 88.695117 97.88513 
L 95.267777 95.079964 
L 97.265851 90.691208 
L 94.846592 86.364478 
L 93.16069 81.937815 
L 98.765583 78.577274 
L 106.308191 76.604751 
L 114.46064 75.551309 
L 122.370734 74.054364 
L 130.591893 73.169577 
L 138.969853 73.006534 
L 147.3478 73.169768 
L 155.580348 72.316306 
L 161.638396 69.192593 
L 168.236025 66.40451 
L 174.996497 69.076841 
L 181.321295 66.110728 
L 184.60317 61.952406 
L 188.730374 58.018983 
L 184.694838 54.05802 
L 182.117941 49.757816 
L 173.825642 49.093361 
L 165.847315 50.48111 
L 158.97074 47.896288 
L 150.737336 47.04523 
L 143.115434 48.927107 
L 135.057695 50.174435 
L 127.354983 48.390722 
L 123.343487 44.422669 
L 115.51009 42.812795 
L 110.587317 39.154953 
L 110.818527 34.63769 
L 117.129932 31.663301 
L 119.936831 28.243636 
L 155.47747 28.243636 
L 163.174641 30.034287 
L 171.160298 31.40973 
L 179.521915 31.08404 
L 187.709284 32.055609 
L 195.622707 33.547434 
L 203.962973 34.005351 
L 212.343452 34.125004 
L 219.945368 36.030226 
L 228.305928 36.363707 
L 234.177545 33.138213 
L 238.166591 29.16359 
L 243.247854 28.243636 
L 217.910247 28.243636 
L 210.000932 29.741777 
L 201.728958 30.476167 
L 189.536357 28.243636 
L 155.854948 28.243636 
L 239.782425 28.243636 
L 245.767075 31.408192 
L 254.141269 31.196254 
L 261.814221 33.016855 
L 270.196175 33.101311 
L 278.526991 32.595874 
L 286.436287 31.097704 
L 290.420421 28.243636 
L 292.239295 28.243636 
L 278.753555 28.243636 
L 270.898558 29.822633 
L 262.822436 28.610344 
L 254.43926 28.575927 
L 246.071471 28.85173 
L 237.826628 28.243636 
L 229.820583 29.584199 
L 223.55893 28.243636 
L 199.898687 28.243636 
L 212.062017 28.243636 
L 219.690357 30.117918 
L 227.480628 31.78749 
L 227.381545 36.306156 
L 225.915935 40.755546 
L 223.748906 45.120945 
L 225.319613 49.559903 
L 226.247936 54.051094 
L 231.036423 57.760369 
L 237.772366 60.450637 
L 239.913666 64.819724 
L 246.043913 67.902239 
L 251.363577 71.394893 
L 259.610224 70.581942 
L 261.548395 66.185387 
L 258.270555 62.026141 
L 259.183569 57.534038 
L 265.364894 54.481305 
L 270.279739 50.820368 
L 271.831698 46.379494 
L 268.480345 42.237305 
L 262.943795 38.844005 
L 263.922323 34.355912 
L 259.527149 30.507764 
L 255.741602 28.243636 
L 228.671868 28.243636 
L 220.875343 29.904704 
L 213.747168 32.283251 
L 209.896497 36.297331 
L 214.512167 40.069723 
L 211.596615 44.306619 
L 206.670612 47.963197 
L 203.743626 52.197802 
L 203.679964 56.716653 
L 210.213724 59.548101 
L 216.18732 62.71872 
L 224.317899 63.820177 
L 232.038783 65.580914 
L 239.917031 67.125887 
L 248.067515 68.183736 
L 255.577098 70.192538 
L 263.793525 69.295072 
L 269.696884 66.086457 
L 272.005359 61.742176 
L 279.441524 59.655525 
L 287.602789 58.622108 
L 295.925262 58.078204 
L 303.538414 59.970345 
L 309.131003 63.336837 
L 306.284522 67.587359 
L 298.107571 68.584095 
L 289.965688 67.507172 
L 283.789915 70.563168 
L 276.081511 72.339723 
L 268.89626 74.667835 
L 262.720585 71.611782 
L 259.007919 67.5601 
L 255.674883 63.413619 
L 256.521894 58.917761 
L 260.690381 54.997008 
L 259.252543 50.544986 
L 260.544034 46.079949 
L 265.826478 42.57092 
L 273.991455 43.595779 
L 282.065906 42.380257 
L 287.87878 45.63652 
L 285.962465 50.035858 
L 276.504641 57.498574 
L 281.186092 61.247339 
L 288.369991 63.576664 
L 289.81161 68.02833 
L 296.741096 70.571764 
L 303.461262 73.273473 
L 307.353683 77.275835 
L 312.150833 80.981857 
L 314.588562 85.305573 
L 313.379256 89.777292 
L 309.147034 93.678156 
L 311.478492 98.018869 
L 315.443673 102.000425 
L 318.752842 106.152456 
L 319.95853 110.624459 
L 326.039922 113.734964 
L 331.837563 116.999109 
L 336.918195 120.593684 
L 340.813269 124.595297 
L 346.05425 128.122345 
L 354.43683 128.058427 
L 362.666619 127.197271 
L 362.351926 122.681474 
L 360.095388 118.329271 
L 358.697834 113.873524 
L 359.164182 109.361539 
L 357.651093 104.91677 
L 363.753326 101.818147 
L 372.089398 101.338553 
L 379.929809 102.938475 
L 382.184312 107.290984 
L 387.277683 110.880316 
L 393.149519 114.105695 
L 401.158856 115.440533 
L 408.836571 117.25529 
L 415.687359 119.859932 
L 424.057152 119.602395 
L 431.953254 121.120654 
L 436.493585 124.919519 
L 439.264936 129.184442 
L 446.565801 131.405584 
L 454.923494 131.759331 
L 463.1872 132.520286 
L 467.267776 128.572753 
L 475.440221 127.565335 
L 483.808147 127.839936 
L 491.97755 128.854495 
L 500.287121 129.452981 
L 508.416045 130.557982 
L 515.723683 132.772643 
L 523.731263 134.11054 
L 531.899321 135.128242 
L 540.270189 134.881064 
L 543.847759 138.967908 
L 538.980847 142.647405 
L 536.627452 146.984677 
L 544.505969 148.529251 
L 546.671507 152.894865 
L 543.89107 157.15807 
L 547.002685 161.35425 
L 553.619876 164.12883 
L 555.445107 168.539408 
L 554.732496 173.042034 
L 560.029598 176.544638 
L 566.251564 179.573286 
L 571.841139 182.941232 
L 580.193904 182.555143 
L 587.846915 180.710315 
L 593.578844 177.412622 
L 601.955262 177.597246 
L 610.183836 176.732719 
L 617.492336 174.518884 
L 625.257977 176.22147 
L 630.732726 172.799158 
L 638.628407 171.280264 
L 646.917381 171.956671 
L 653.424829 169.107672 
L 655.487613 164.727622 
L 654.975052 160.217094 
L 650.761989 156.31021 
L 642.38292 156.455765 
L 634.943267 158.538801 
L 627.186754 156.824168 
L 618.892725 157.482323 
L 610.770024 158.600541 
L 602.95396 160.234711 
L 594.733713 161.121956 
L 589.301464 164.563889 
L 582.76099 167.390829 
L 578.214761 163.594015 
L 571.268174 161.064172 
L 562.896618 161.304491 
L 554.980614 159.816651 
L 546.599943 159.932326 
L 538.553996 161.201579 
L 530.674085 162.744086 
L 522.296963 162.56897 
L 516.784865 165.973817 
L 510.60575 169.027849 
L 505.871367 172.75725 
L 502.832555 176.968904 
L 500.864777 181.361637 
L 498.130686 185.633542 
L 491.414956 188.338454 
L 486.789417 192.107332 
L 482.947856 196.123948 
L 482.042786 200.616517 
L 479.852795 204.978586 
L 486.175757 207.945835 
L 489.516805 212.090442 
L 485.635727 216.096005 
L 479.719931 219.297957 
L 474.484255 222.827294 
L 470.088723 226.675324 
L 461.774898 227.256391 
L 454.59491 224.923566 
L 448.300435 221.93877 
L 445.073504 217.767973 
L 440.59841 213.946682 
L 438.150221 209.624683 
L 433.122912 206.008389 
L 436.418342 201.853184 
L 441.241083 198.156826 
L 448.542498 200.377443 
L 455.265682 197.677917 
L 452.11248 193.490766 
L 445.079825 191.030988 
L 436.955466 189.916274 
L 428.78134 190.919718 
L 420.437165 191.356454 
L 412.055417 191.446659 
L 403.70905 191.022266 
L 395.510809 190.077712 
L 378.849798 189.068343 
L 372.078726 186.403821 
L 364.582438 188.427001 
L 356.874018 186.650466 
L 348.497741 186.463989 
L 340.725909 184.769631 
L 332.764751 186.185738 
L 326.805782 189.364345 
L 323.673584 193.556073 
L 316.90645 196.223501 
L 308.797314 197.36997 
L 304.735724 193.416751 
L 298.163935 190.610992 
L 293.575805 186.828851 
L 285.273644 186.201198 
L 277.464271 187.844637 
L 270.246808 185.545658 
L 262.883075 183.38566 
L 261.057915 178.975073 
L 254.815134 175.958897 
L 254.246055 171.450339 
L 250.274707 167.470569 
L 247.974992 163.124938 
L 242.050603 159.927606 
L 236.87049 156.374526 
L 231.569551 152.873609 
L 226.919432 149.11353 
L 219.135275 147.435693 
L 135.784939 168.704194 
L 237.091898 200.64901 
L 244.873516 202.330265 
L 268.633188 206.77488 
L 276.840213 207.697002 
L 284.858419 209.016278 
L 293.016267 210.057503 
L 301.256941 210.887866 
L 318.019067 211.09883 
L 343.129747 211.844937 
L 351.493812 211.538053 
L 367.657988 209.136845 
L 375.518938 207.566479 
L 383.282222 205.860773 
L 390.740827 203.797524 
L 398.031597 201.566767 
L 404.859481 198.944708 
L 411.369941 196.097708 
L 418.436441 193.666278 
L 424.645251 190.629795 
L 430.598135 187.447878 
L 441.02066 180.368243 
L 446.906458 177.150267 
L 453.52309 174.3753 
L 460.631647 171.979756 
L 467.108696 169.110699 
L 473.20202 166.006986 
L 478.304772 162.421526 
L 482.976917 158.669389 
L 486.20552 154.498968 
L 489.919865 150.447733 
L 492.92173 146.228387 
L 495.549352 141.937112 
L 499.118786 137.848202 
L 502.518286 133.717428 
L 504.705988 129.355026 
L 507.013842 125.01065 
L 509.168632 120.64349 
L 510.980856 116.231354 
L 513.858522 111.986938 
L 517.434517 107.899694 
L 520.561748 103.706888 
L 522.944577 99.374288 
L 524.550836 94.939029 
L 525.605976 90.455982 
L 527.1282 86.012119 
L 528.42054 81.547154 
L 531.71771 72.685678 
L 533.661931 68.289899 
L 539.514575 59.820594 
L 542.757667 55.653441 
L 545.745471 51.431196 
L 550.958184 42.841282 
L 555.605684 39.080262 
L 554.311247 34.615473 
L 555.935235 30.18209 
L 551.344143 28.243636 
L 536.34131 32.278888 
L 528.143738 33.225127 
L 523.730821 29.382883 
L 515.377905 28.997748 
L 508.595264 31.653707 
L 503.930055 35.408351 
L 498.035866 38.621861 
L 493.158993 42.297524 
L 492.089521 46.779584 
L 484.668427 48.881768 
L 476.338417 48.372493 
L 468.637315 50.158225 
L 463.037687 53.521316 
L 457.868452 57.078997 
L 455.460016 61.407481 
L 459.207579 65.449816 
L 466.08686 68.032546 
L 471.543667 71.463173 
L 477.983284 74.35661 
L 486.330457 74.776367 
L 492.695625 77.71728 
L 500.639293 79.161645 
L 505.508791 82.840148 
L 506.961699 87.290748 
L 505.782751 91.764822 
L 504.200727 96.202612 
L 498.285336 99.404782 
L 492.865205 102.852262 
L 497.980455 106.432543 
L 504.137233 109.499655 
L 510.936699 112.143084 
L 507.447111 116.251972 
L 501.601325 119.49107 
L 493.768276 121.101436 
L 492.25884 125.546566 
L 487.92956 129.416358 
L 486.724667 133.888423 
L 483.654826 138.093534 
L 482.566413 142.574269 
L 486.862491 146.454797 
L 492.05186 150.003951 
L 493.289184 154.473443 
L 488.662731 158.241995 
L 486.601912 162.622313 
L 482.389779 166.529489 
L 477.836349 170.323796 
L 469.518935 170.88974 
L 461.834854 172.696652 
L 451.348497 179.748822 
L 445.021354 182.713481 
L 436.746641 183.438846 
L 428.55603 182.475248 
L 420.244235 183.064688 
L 412.128203 184.19689 
L 404.014043 183.060797 
L 398.253656 179.777544 
L 396.07455 175.413892 
L 395.481829 170.906219 
L 388.68304 168.262285 
L 381.545471 165.891938 
L 373.984393 163.940068 
L 366.67856 166.156459 
L 358.429966 165.349269 
L 350.611141 166.979596 
L 346.769817 162.962914 
L 339.564589 160.652811 
L 331.388767 159.653387 
L 337.342676 156.472028 
L 338.698767 152.012559 
L 341.676538 147.788255 
L 344.147138 143.469963 
L 344.879374 138.968251 
L 344.013291 134.473449 
L 336.365221 132.622678 
L 328.517964 131.032537 
L 320.338197 130.042538 
L 312.04525 130.704641 
L 303.673509 130.466213 
L 295.292463 130.573707 
L 292.992884 126.228056 
L 294.586648 121.791487 
L 297.658136 117.586725 
L 299.430835 113.169926 
L 297.922517 108.724685 
L 299.668307 104.304773 
L 299.382473 99.788419 
L 306.431671 97.342438 
L 314.012649 95.413127 
L 316.916287 91.173854 
L 311.168255 87.884316 
L 303.517939 89.732389 
L 296.798966 92.43496 
L 289.393777 90.316542 
L 282.661429 87.62366 
L 277.158731 84.214398 
L 270.260059 81.646742 
L 263.206504 79.204413 
L 265.533084 74.86294 
L 263.755576 70.446702 
L 257.272628 67.581519 
L 249.452334 65.953239 
L 242.258621 63.632733 
L 234.175798 62.433488 
L 226.02712 63.495373 
L 218.494957 65.47946 
L 212.734205 68.762527 
L 206.632836 71.861644 
L 198.284547 72.274902 
L 191.485344 74.918528 
L 187.295099 78.832537 
L 179.792444 80.848846 
L 171.527698 81.606512 
L 163.323122 80.678077 
L 160.185881 76.487444 
L 162.584222 72.157332 
L 167.166926 68.373279 
L 175.439722 67.64159 
L 183.509362 66.41682 
L 190.230693 69.117687 
L 191.543569 73.580912 
L 189.592382 77.975794 
L 186.888596 82.253299 
L 191.611016 85.987104 
L 187.299129 99.3427 
L 192.979115 102.666405 
L 201.286959 103.271816 
L 208.516987 100.984338 
L 215.508416 98.490646 
L 223.695159 99.463746 
L 226.656619 103.691381 
L 234.09623 105.774462 
L 242.185368 106.961269 
L 249.944694 108.6722 
L 251.880722 113.06903 
L 252.894801 117.554829 
L 256.045993 121.742419 
L 261.282425 125.27143 
L 263.745447 129.59098 
L 270.465113 132.29305 
L 276.933075 135.168058 
L 285.309019 135.358836 
L 293.63586 134.834716 
L 299.398254 131.552486 
L 306.745028 129.375772 
L 308.258422 124.931033 
L 313.614779 121.454712 
L 320.647341 118.994857 
L 328.354223 117.216384 
L 335.938711 119.141682 
L 336.691193 123.642423 
L 338.254786 128.08211 
L 338.422113 132.600192 
L 333.660936 136.319668 
L 328.511979 139.885882 
L 328.930842 144.39922 
L 329.147447 148.916693 
L 334.626615 152.336949 
L 339.879953 160.919758 
L 342.460747 165.219282 
L 347.076978 168.991475 
L 349.042224 173.384536 
L 349.759891 177.88693 
L 351.32178 182.326791 
L 349.799186 186.770617 
L 344.206287 190.13696 
L 335.838812 190.415527 
L 328.820773 192.887405 
L 325.858101 197.114793 
L 322.245735 201.192733 
L 321.87435 205.707279 
L 314.342516 207.691728 
L 312.378563 212.084957 
L 318.448817 215.201778 
L 318.530228 219.720546 
L 325.38946 222.318723 
L 330.684958 225.822031 
L 339.0674 225.890994 
L 346.355097 228.124667 
L 351.086627 231.855119 
L 354.830404 235.898474 
L 358.403846 239.986367 
L 360.172068 244.403688 
L 365.49795 247.893587 
L 381.730937 250.156064 
L 389.720367 248.787002 
L 397.253286 246.80375 
L 405.210266 245.380835 
L 408.949625 241.336292 
L 411.997621 237.126566 
L 417.608324 233.768843 
L 421.739958 229.836771 
L 429.285546 227.867562 
L 437.159898 226.316829 
L 443.873019 223.610036 
L 447.162154 219.453381 
L 453.98129 216.824716 
L 455.147015 212.349635 
L 460.97562 209.101553 
L 456.745244 205.200109 
L 455.60672 200.722993 
L 454.720512 196.229331 
L 449.117338 192.867957 
L 448.189891 188.376714 
L 448.709393 183.866417 
L 448.392584 179.350663 
L 441.369783 176.882718 
L 433.507048 178.450485 
L 428.201172 181.949228 
L 420.185187 183.272419 
L 412.983863 185.586057 
L 409.943353 189.797355 
L 406.429397 193.900204 
L 407.257048 198.39711 
L 407.410649 202.915333 
L 401.836106 206.290511 
L 395.232855 209.074724 
L 402.58718 211.244016 
L 410.2318 213.098925 
L 415.576422 216.58049 
L 419.491208 220.57651 
L 424.882583 224.037067 
L 438.884991 229.008012 
L 444.723581 232.250879 
L 451.995204 234.499721 
L 455.014641 238.715423 
L 452.605771 243.043837 
L 452.970121 247.558549 
L 452.222188 252.05951 
L 444.149074 253.277609 
L 436.229956 254.760627 
L 429.379461 252.155761 
L 429.064598 247.639967 
L 429.437441 243.125457 
L 427.068741 238.790606 
L 425.224795 234.382291 
L 422.439376 230.120031 
L 419.495016 225.888928 
L 416.01744 221.777082 
L 408.854298 219.429258 
L 408.194325 214.924301 
L 402.450979 211.632385 
L 399.524082 207.397762 
L 391.604076 205.916123 
L 384.066748 203.937744 
L 378.073351 200.778001 
L 376.377799 196.35241 
L 370.480161 193.140739 
L 369.382992 188.660625 
L 364.828112 184.866824 
L 356.703096 183.753504 
L 349.920023 181.097865 
L 349.56713 176.582889 
L 354.374313 172.880647 
L 354.148641 168.363303 
L 352.253298 163.961326 
L 358.575612 160.993676 
L 365.836007 158.734316 
L 373.873756 157.45006 
L 376.273049 153.120101 
L 384.492287 154.010057 
L 391.189223 156.728474 
L 398.170227 159.230637 
L 406.428881 160.007366 
L 414.109754 158.196496 
L 418.822392 154.459102 
L 426.114125 152.22926 
L 427.567585 147.778713 
L 428.267619 143.275513 
L 424.548052 139.225671 
L 419.760563 135.516022 
L 411.513355 134.704726 
L 404.331971 132.37315 
L 404.100664 127.855889 
L 402.955225 123.379286 
L 398.711987 119.481901 
L 395.689273 115.266882 
L 390.682163 111.642455 
L 382.368299 111.061553 
L 375.422373 108.531183 
L 367.755045 106.70371 
L 361.089703 103.962824 
L 355.693427 100.504488 
L 354.344541 91.495963 
L 347.506124 88.881893 
L 341.023146 86.016729 
L 336.33825 82.269214 
L 327.9553 82.316994 
L 319.574687 82.200101 
L 311.342271 83.053931 
L 303.88255 80.991853 
L 295.519435 80.677538 
L 287.493999 79.371099 
L 281.050377 76.480254 
L 277.115856 72.489871 
L 270.215799 69.923295 
L 268.488644 65.501256 
L 261.339545 63.141027 
L 257.563252 59.106468 
L 249.673643 57.578433 
L 241.491621 58.563002 
L 233.140212 58.957524 
L 224.770095 58.703066 
L 217.05253 56.938107 
L 209.131846 55.457521 
L 204.809176 51.585582 
L 196.473997 51.1015 
L 188.384276 49.915847 
L 180.00104 49.945648 
L 164.274861 46.811395 
L 156.169114 47.964805 
L 150.351783 44.710856 
L 142.119633 43.856278 
L 134.269715 45.442597 
L 127.671021 48.229947 
L 128.884923 52.701305 
L 134.666041 55.973953 
L 143.029332 56.286905 
L 151.01105 57.668975 
L 158.714394 59.451895 
L 164.912462 62.494748 
L 169.939008 66.111349 
L 177.039338 68.513973 
L 185.061543 67.201779 
L 192.397591 65.014579 
L 200.739512 65.463646 
L 206.968282 68.488228 
L 212.499742 71.883939 
L 215.780543 76.042507 
L 232.186239 74.178046 
L 240.531033 74.611334 
L 247.71495 76.940643 
L 252.694633 80.576033 
L 261.04886 80.952812 
L 272.981765 87.301527 
L 275.400158 91.628398 
L 278.628 95.79899 
L 285.023892 98.72047 
L 292.72815 100.502244 
L 301.086567 100.850982 
L 304.921648 104.869397 
L 311.115958 107.914472 
L 311.297915 112.432389 
L 312.830064 116.87526 
L 317.92069 120.465725 
L 317.309658 124.972688 
L 317.587016 129.489196 
L 317.105258 134.00071 
L 319.951542 138.251269 
L 316.80294 142.439426 
L 315.765591 146.923679 
L 318.324096 151.227072 
L 319.526265 155.69935 
L 322.578602 159.908162 
L 326.694545 163.845012 
L 328.937119 168.199311 
L 330.09419 172.675045 
L 332.343519 177.028331 
L 334.782909 181.351775 
L 328.337243 184.241296 
L 320.756068 186.170381 
L 312.925181 187.7838 
L 304.939355 186.408641 
L 297.219051 184.647165 
L 289.35859 183.076088 
L 287.00289 178.73918 
L 281.226911 175.463896 
L 284.531332 171.310766 
L 282.520564 166.923694 
L 281.69781 162.426527 
L 280.987686 157.923787 
L 285.793425 149.265158 
L 287.903834 144.891705 
L 291.166609 140.729019 
L 294.296901 136.536876 
L 290.824067 132.423866 
L 284.604848 129.39358 
L 277.516168 126.980981 
L 270.625829 124.406831 
L 264.320968 127.38525 
L 264.490077 131.903313 
L 266.228739 136.324042 
L 261.644548 140.10757 
L 260.407873 144.577114 
L 262.128495 148.999893 
L 254.422962 150.780063 
L 249.086222 154.26514 
L 249.539878 158.7775 
L 253.395382 162.790232 
L 258.937061 166.181099 
L 265.193811 169.188853 
L 260.520291 172.940493 
L 261.989544 177.389533 
L 266.013798 181.35383 
L 272.264768 184.365075 
L 278.914651 187.11685 
L 283.85415 190.768134 
L 276.916605 193.305175 
L 269.249359 195.132748 
L 260.867396 195.048555 
L 254.602385 198.051308 
L 252.813435 202.466203 
L 250.259555 206.770395 
L 245.64541 210.543329 
L 237.267149 210.701816 
L 230.590182 213.434468 
L 222.856483 215.178788 
L 215.576766 217.420008 
L 207.194625 217.498887 
L 201.253941 220.687423 
L 197.256526 224.659603 
L 196.029668 229.129932 
L 193.933178 233.505329 
L 188.246441 236.825678 
L 180.142825 237.983431 
L 172.150662 239.347851 
L 164.388878 241.055539 
L 152.078889 247.191842 
L 143.840937 248.030017 
L 138.070443 244.751925 
L 130.758631 242.54127 
L 122.438838 243.096961 
L 114.52536 244.5887 
L 106.154457 244.835535 
L 98.034789 245.960136 
L 90.748565 248.195204 
L 82.62884 249.319685 
L 74.984979 251.175503 
L 67.717875 253.428586 
L 59.367408 253.028314 
L 52.396364 251.317017 
L 52.396364 239.14914 
L 52.396364 253.74748 
L 54.250493 258.154554 
L 61.223131 260.663486 
L 63.395557 265.028106 
L 55.676926 266.791712 
L 52.396364 269.862929 
L 52.396364 277.69254 
L 52.69494 282.208654 
L 52.396364 286.719877 
L 52.396364 295.189851 
L 52.624794 299.707155 
L 52.705843 304.225925 
L 56.671959 308.207211 
L 58.848102 312.571292 
L 62.957108 316.510248 
L 66.000496 320.720942 
L 67.788549 325.135943 
L 73.781728 328.295805 
L 81.970457 329.26404 
L 84.372873 333.593495 
L 87.033296 337.878894 
L 95.335128 338.507814 
L 103.658637 337.968534 
L 100.550767 333.771547 
L 95.319723 330.240215 
L 86.94506 330.446684 
L 80.527864 333.354559 
L 72.178165 332.949661 
L 63.808705 332.689002 
L 55.812784 331.330994 
L 54.430641 326.873851 
L 60.470139 323.739718 
L 65.640707 320.182601 
L 73.910324 319.440541 
L 82.233415 319.981692 
L 90.275658 318.705635 
L 101.459417 311.971982 
L 106.282219 308.275647 
L 106.488721 303.758037 
L 109.069129 299.458445 
L 108.830935 294.941288 
L 107.945701 290.44757 
L 111.959854 286.480298 
L 117.507837 289.868168 
L 121.826113 293.74153 
L 120.449703 298.19919 
L 120.957171 302.709885 
L 122.173847 307.181023 
L 122.001182 311.699046 
L 119.741974 316.050846 
L 113.152318 318.844401 
L 104.906478 319.659726 
L 96.852906 318.404603 
L 92.540252 314.529421 
L 84.755438 312.852468 
L 78.286941 309.977811 
L 70.010356 309.258676 
L 62.585108 307.160759 
L 54.234865 307.562384 
L 52.396364 308.491672 
L 52.396364 334.645593 
L 62.626036 341.806174 
L 70.730322 342.962566 
L 76.87503 339.888429 
L 69.834432 337.435262 
L 63.609613 334.408318 
L 57.682087 331.212676 
L 59.574199 326.810294 
L 53.284336 323.822675 
L 52.396364 320.775628 
L 52.396364 290.932823 
L 54.979891 286.633776 
L 52.396364 282.726213 
L 52.396364 250.574483 
L 54.323597 246.176531 
L 61.69695 244.026088 
L 69.552862 242.448415 
L 77.236621 240.641105 
L 85.144019 242.142183 
L 91.151773 245.293994 
L 99.525997 245.505571 
L 107.234968 247.281411 
L 115.27697 248.557907 
L 123.606812 248.047827 
L 130.840311 245.763539 
L 137.580075 243.076053 
L 142.155425 239.289416 
L 145.355847 235.112688 
L 143.042617 230.769142 
L 139.064927 226.791213 
L 132.278282 224.138228 
L 125.102916 221.801275 
L 132.341462 224.080912 
L 146.818554 228.640187 
L 153.816889 231.128244 
L 168.703778 235.286423 
L 176.601183 236.802711 
L 191.355646 241.095793 
L 212.910052 248.081011 
L 220.027543 250.468835 
L 227.044726 252.941419 
L 234.234142 255.265792 
L 241.522558 257.498782 
L 257.067637 260.885126 
L 264.976939 262.383287 
L 272.973503 263.740193 
L 281.135288 264.772415 
L 289.392877 265.552425 
L 297.767979 265.753655 
L 314.527748 265.491785 
L 322.89571 265.217506 
L 339.552982 264.188358 
L 347.775356 263.306859 
L 355.68605 261.810834 
L 363.485475 260.153727 
L 371.465812 258.769341 
L 378.99133 256.777941 
L 386.871689 255.236099 
L 394.660343 253.564336 
L 402.612171 252.133079 
L 418.238907 248.857439 
L 426.30376 247.623542 
L 441.520045 243.82782 
L 448.272234 241.149411 
L 455.334958 238.714794 
L 462.655566 236.512614 
L 470.339362 234.705351 
L 485.90839 231.350705 
L 493.922533 230.024276 
L 517.588122 225.447069 
L 525.518999 223.982424 
L 533.619982 222.819327 
L 541.868233 222.01112 
L 583.328273 218.703845 
L 591.644954 218.134777 
L 600.007228 217.814025 
L 608.387781 217.932152 
L 616.705555 218.496559 
L 625.081772 218.683814 
L 633.464186 218.753778 
L 641.238565 220.444736 
L 648.720565 222.483226 
L 657.047505 221.959565 
L 662.553908 225.367089 
L 666.053712 229.473451 
L 668.998676 233.704433 
L 672.488159 237.813346 
L 664.221033 237.063264 
L 659.09522 233.487375 
L 655.521953 229.399438 
L 656.330292 224.901512 
L 659.293549 220.674243 
L 658.880434 216.160751 
L 659.264959 211.646526 
L 656.815267 207.324774 
L 656.54806 202.808088 
L 662.403206 199.573906 
L 662.3138 195.055181 
L 665.865765 190.961853 
L 674.063431 190.015851 
L 682.327805 189.257007 
L 690.513794 190.231949 
L 694.048892 194.329518 
L 700.390163 197.285392 
L 699.247523 201.762203 
L 690.96115 202.447801 
L 683.086264 200.897855 
L 675.420711 199.06822 
L 669.711863 195.758914 
L 668.802683 191.266586 
L 665.047092 187.226416 
L 659.436164 183.868801 
L 651.053189 183.822334 
L 643.191988 182.252334 
L 640.645834 177.946813 
L 642.658189 173.559952 
L 644.204303 169.118487 
L 647.829043 165.043738 
L 654.098912 162.043932 
L 659.468538 158.573564 
L 662.891785 154.448493 
L 654.514894 154.626774 
L 646.660046 156.205987 
L 638.294485 155.91119 
L 630.992761 158.131512 
L 623.032057 156.714665 
L 614.800985 157.572255 
L 607.691195 159.966736 
L 599.696655 161.327103 
L 592.757953 163.863225 
L 585.315976 165.943848 
L 578.222866 168.35266 
L 570.096701 169.463542 
L 568.067435 173.848139 
L 571.933767 177.857842 
L 574.991705 182.065473 
L 577.091197 186.440452 
L 575.942053 190.916778 
L 571.895782 194.874559 
L 576.241696 198.738929 
L 582.571034 201.702226 
L 581.092514 206.150374 
L 578.27593 210.406679 
L 571.964641 213.38114 
L 566.609633 209.904215 
L 558.570715 208.622087 
L 550.245671 209.154442 
L 547.506528 213.425406 
L 541.545835 216.603073 
L 540.527247 221.088575 
L 542.671945 225.457178 
L 540.960913 229.881038 
L 541.684738 234.383145 
L 538.445986 238.551279 
L 546.43561 239.920013 
L 550.429399 243.893252 
L 555.202184 247.608403 
L 560.617855 251.057919 
L 560.638043 255.576887 
L 560.112619 260.086985 
L 555.17069 263.737314 
L 557.303069 268.107668 
L 557.682246 272.622025 
L 553.261744 276.461735 
L 551.739963 280.905642 
L 555.67043 284.897187 
L 563.155708 286.932176 
L 571.471742 287.503982 
L 579.81323 287.052579 
L 587.993851 286.064631 
L 596.240203 286.878449 
L 600.936238 290.621911 
L 607.242105 293.599712 
L 613.157397 296.801935 
L 620.329471 299.141823 
L 626.58828 302.148332 
L 639.543935 307.885021 
L 647.917262 308.106676 
L 655.652868 309.848536 
L 658.770281 314.043467 
L 667.018913 313.236391 
L 675.402161 313.265202 
L 683.681541 313.974926 
L 691.677544 315.332793 
L 697.7442 318.451648 
L 705.755619 319.78285 
L 710.848257 323.372485 
L 711.905149 327.855412 
L 712.008889 332.374048 
L 712.254067 336.891097 
L 705.086285 339.234803 
L 700.400244 342.981902 
L 696.017702 346.834235 
L 692.226017 350.864597 
L 684.211458 352.190296 
L 677.3904 354.817512 
L 671.845735 358.20696 
L 668.54768 362.36156 
L 661.390285 364.714472 
L 667.375507 367.878714 
L 672.314286 371.530281 
L 679.661267 373.706791 
L 687.230576 375.649368 
L 695.532555 375.021011 
L 711.974915 376.788917 
L 720.07363 377.956592 
L 728.27184 378.901225 
L 735.600419 381.095688 
L 742.067071 378.219825 
L 750.257114 379.184822 
L 755.977079 382.488546 
L 759.359216 386.623458 
L 758.260015 395.641953 
L 761.87742 399.718595 
L 763.965417 404.095172 
L 769.772647 407.354359 
L 777.963255 408.317964 
L 786.345177 408.403317 
L 794.595379 407.600917 
L 809.494432 411.746393 
L 817.710087 410.846874 
L 822.951269 407.319912 
L 830.254906 405.101419 
L 832.82756 400.800478 
L 825.651273 398.464345 
L 818.227519 400.563798 
L 809.912969 401.14184 
L 810.389654 405.65351 
L 808.222142 410.01884 
L 811.531976 414.170718 
L 808.692613 418.422622 
L 803.427227 421.939093 
L 795.815553 423.83296 
L 788.596997 426.130942 
L 784.636569 430.113872 
L 778.738883 433.325517 
L 770.730709 434.66238 
L 768.374316 438.99918 
L 768.603824 443.516468 
L 766.770426 447.926061 
L 766.627903 452.44439 
L 763.211047 456.571 
L 759.593849 460.647696 
L 757.902012 465.073701 
L 750.370815 467.058853 
L 741.990265 466.940665 
L 734.126566 468.507027 
L 726.06749 467.262211 
L 717.78084 467.946841 
L 715.858076 472.345361 
L 718.395363 476.652403 
L 721.304608 480.890559 
L 729.665174 481.223997 
L 737.980423 480.648885 
L 746.363132 480.707702 
L 748.462364 476.332687 
L 749.812829 471.872723 
L 747.830738 467.481861 
L 748.385842 462.972796 
L 750.589712 458.612759 
L 749.86633 454.110632 
L 745.021123 450.42282 
L 745.695263 445.918473 
L 745.911495 441.400995 
L 751.718544 438.141713 
L 756.278853 434.349808 
L 761.666901 430.887746 
L 765.935887 426.99854 
L 766.162806 422.481214 
L 769.043071 418.237311 
L 766.836236 413.877709 
L 765.859752 409.389487 
L 759.495791 401.02802 
L 764.753122 397.508048 
L 767.575458 393.252851 
L 765.613802 388.859323 
L 769.6553 384.900126 
L 775.84551 381.852629 
L 783.850526 380.510283 
L 789.982401 377.428709 
L 796.842062 380.026557 
L 805.224856 379.971436 
L 813.575366 379.57142 
L 819.954129 376.639079 
L 823.096201 372.449498 
L 815.49117 370.547892 
L 807.637276 368.967301 
L 799.25389 368.979907 
L 791.022833 369.837535 
L 782.974538 371.102455 
L 774.613352 371.431346 
L 766.238577 371.636487 
L 758.330044 373.135828 
L 755.306323 377.350638 
L 746.942552 377.041439 
L 738.666437 377.762144 
L 732.498815 380.822919 
L 734.822256 385.16488 
L 734.401212 389.678159 
L 729.432227 393.3178 
L 728.354494 397.799285 
L 733.530841 401.353959 
L 737.476618 405.341112 
L 737.42699 409.860015 
L 732.453956 413.498048 
L 730.911358 417.939869 
L 729.813137 422.419908 
L 736.900717 424.833446 
L 745.191135 424.162206 
L 751.62601 421.265705 
L 753.83689 416.9067 
L 753.278619 412.397749 
L 745.079498 411.455416 
L 738.068188 408.977996 
L 733.489815 405.192421 
L 728.467415 401.574146 
L 744.857378 399.669386 
L 750.728361 396.443557 
L 754.953523 392.540471 
L 755.563202 388.033455 
L 756.450807 383.539873 
L 760.200934 379.498228 
L 767.612235 377.38603 
L 770.566067 373.156845 
L 777.458942 370.584669 
L 785.822656 370.275019 
L 793.303052 368.234821 
L 798.410856 364.651452 
L 801.901205 360.542752 
L 800.955207 356.052633 
L 801.265317 351.536744 
L 804.962788 347.481027 
L 808.942402 343.503658 
L 809.380952 338.990863 
L 805.895152 334.881042 
L 799.208895 332.154997 
L 792.119091 334.566635 
L 785.188733 337.109378 
L 776.978987 338.024438 
L 762.836304 342.879087 
L 756.825228 346.029056 
L 754.187194 350.318475 
L 756.28329 354.693926 
L 760.064793 358.727068 
L 764.504674 362.560275 
L 764.176296 367.075789 
L 765.301343 371.553894 
L 766.280287 376.04196 
L 765.359297 380.53359 
L 763.877441 384.981415 
L 762.516568 389.44046 
L 766.96729 393.270013 
L 774.913994 394.709517 
L 781.615437 397.424705 
L 786.977768 400.898349 
L 785.902022 405.379973 
L 785.882537 409.898942 
L 789.072293 414.07804 
L 794.441041 417.548803 
L 801.07639 420.310754 
L 800.758211 424.82648 
L 800.677836 429.345254 
L 802.645867 433.737953 
L 802.398756 438.254971 
L 800.263893 442.624974 
L 795.939247 446.49627 
L 788.944248 448.987052 
L 783.457646 452.403843 
L 776.20528 454.670682 
L 767.903305 454.042314 
L 766.177498 449.620122 
L 760.96079 446.082633 
L 760.269443 441.579044 
L 764.214835 437.59178 
L 767.163558 433.361559 
L 767.075639 428.842825 
L 759.84619 426.554816 
L 751.736628 425.409223 
L 751.436412 420.893139 
L 753.234298 416.479299 
L 749.1811 412.523579 
L 742.032051 410.163306 
L 746.133001 406.221913 
L 754.507365 406.011952 
L 762.890338 406.058535 
L 770.900252 407.392367 
L 775.317332 411.233221 
L 775.158882 415.751395 
L 778.293248 419.942653 
L 781.86756 424.030325 
L 784.719846 428.279715 
L 790.754663 431.416467 
L 790.078733 435.920736 
L 797.534791 437.986659 
L 805.272824 439.725385 
L 811.835638 442.53724 
L 816.786997 446.183854 
L 815.849578 450.674496 
L 818.728995 454.918566 
L 823.672621 458.568227 
L 831.940514 459.315848 
L 838.91181 461.825864 
L 847.212681 462.458459 
L 855.466447 461.666779 
L 861.802114 458.707415 
L 869.580556 457.021893 
L 874.561755 453.387107 
L 871.926804 449.097138 
L 868.085775 445.080375 
L 860.109647 443.68896 
L 843.351211 443.415047 
L 835.404934 441.974858 
L 819.835268 438.621238 
L 818.474701 434.162166 
L 811.99044 431.297846 
L 806.340974 427.959061 
L 805.661323 423.454954 
L 802.812721 419.204846 
L 808.451758 415.860943 
L 816.760339 415.258478 
L 822.87089 412.164621 
L 825.999583 407.972132 
L 831.592279 404.605691 
L 835.72951 400.67533 
L 841.502894 397.398717 
L 849.702798 398.339069 
L 858.006058 398.962486 
L 864.815828 401.598198 
L 869.254863 405.43169 
L 875.63097 408.365709 
L 884.014363 408.35466 
L 892.242998 407.490303 
L 900.262413 406.173164 
L 901.924939 401.743933 
L 905.521746 397.661999 
L 913.43356 396.167696 
L 918.978574 392.778414 
L 925.282173 389.799218 
L 930.236198 386.153657 
L 927.146752 381.952719 
L 926.269775 377.458531 
L 923.223367 373.248471 
L 914.841914 373.150629 
L 907.726991 375.540676 
L 908.937873 380.012271 
L 902.6003 382.97045 
L 897.592171 386.594468 
L 894.889687 390.872213 
L 896.464271 395.310771 
L 896.169659 399.826962 
L 885.393463 406.750776 
L 878.536903 409.351001 
L 870.156374 409.23238 
L 862.116897 410.51349 
L 853.83273 409.820186 
L 845.450653 409.739343 
L 839.326875 412.825591 
L 832.619427 415.536467 
L 824.414836 416.464863 
L 816.064957 416.061045 
L 809.46876 418.850112 
L 801.377669 420.033046 
L 793.930971 417.957338 
L 785.762876 416.939721 
L 777.884231 418.484106 
L 769.839826 419.756194 
L 763.717449 416.669138 
L 755.561404 415.623816 
L 747.248406 416.208308 
L 740.296868 418.734196 
L 738.190547 423.10822 
L 738.021392 427.626282 
L 730.841957 429.959602 
L 731.404772 434.468389 
L 735.103887 438.52367 
L 730.047626 442.128216 
L 723.033859 444.603614 
L 720.584044 440.281883 
L 712.313605 441.021278 
L 705.931358 438.09114 
L 702.002644 434.099094 
L 693.882891 432.974671 
L 686.123853 431.263361 
L 679.092149 433.723929 
L 671.282756 435.367339 
L 667.186429 431.424548 
L 668.262086 426.942919 
L 665.874989 422.611002 
L 656.988677 414.946798 
L 656.14108 410.450972 
L 665.621713 402.996553 
L 658.65604 400.482005 
L 650.460508 401.433366 
L 633.98108 399.768027 
L 631.522307 395.447775 
L 629.722341 391.034181 
L 630.418525 386.530808 
L 628.98628 382.078262 
L 634.786106 378.815246 
L 636.352887 374.375885 
L 633.791691 370.072957 
L 631.974795 365.661379 
L 626.762161 362.122146 
L 626.120403 357.616424 
L 627.497214 353.158801 
L 621.619358 349.93661 
L 624.714423 345.736875 
L 619.786677 342.08098 
L 618.555752 337.610975 
L 610.975966 335.680303 
L 603.245996 333.931189 
L 595.018136 333.06469 
L 588.105882 330.507669 
L 579.751815 330.885484 
L 576.310908 326.764685 
L 573.625353 322.483843 
L 573.116604 317.97319 
L 577.200016 314.026509 
L 577.200016 314.026509 
" style="fill:none;stroke:#ff6347;stroke-linecap:square;stroke-width:1.5;"/>
   </g>
   <g id="line2d_2">
    <path clip-path="url(#pf9352b4331)" d="M 52.396364 593.116364 
L 1100.323636 593.116364 
L 1100.323636 28.243636 
L 52.396364 28.243636 
L 52.396364 593.116364 
" style="fill:none;stroke:#808080;stroke-linecap:square;stroke-width:1.5;"/>
   </g>
  </g>
 </g>
 <defs>
  <clipPath id="pf9352b4331">
   <rect height="621.36" width="1152.72" x="0" y="0"/>
  </clipPath>
 </defs>
</svg>
